<?xml version="1.0" encoding="utf-8"?>
<!-- Generator: Adobe Illustrator 19.2.1, SVG Export Plug-In . SVG Version: 6.00 Build 0)  -->
<svg version="1.1" id="Layer_1" xmlns="http://www.w3.org/2000/svg" xmlns:xlink="http://www.w3.org/1999/xlink" x="0px" y="0px"
	 viewBox="0 0 482.9 342.5" style="enable-background:new 0 0 482.9 342.5;" xml:space="preserve">
<style type="text/css">
	.st0{fill-rule:evenodd;clip-rule:evenodd;fill:#244180;}
	.st1{fill-rule:evenodd;clip-rule:evenodd;fill:#24934A;}
	.st2{fill-rule:evenodd;clip-rule:evenodd;fill:#FFFFFF;}
	.st3{fill:#010101;}
	.st4{fill:#1C984C;}
	.st5{fill-rule:evenodd;clip-rule:evenodd;fill:#FECC30;}
	.st6{fill:#FFFFFF;}
	.st7{font-family:'MyriadPro-Bold';}
	.st8{font-size:50.2453px;}
</style>
<path class="st0" d="M-519.6,12.4l3.1-1.4c5.6-2.6,12.1-3.4,18.2-3.4c13.3,0,25.5,10.6,33.6,20.1l3.9,4.4
	c23.5,3.4,47.2,12.9,56.8,36.3c5.8,14.1,4.7,28.4,2,43.2c-0.3,1.4-0.5,2.8-0.7,4.2c-0.5,2.9-1.1,5.7-1.7,8.6
	c-1.2,6-2.4,11.9-3.6,17.9c-3.5,17.3-7.1,34.6-10.6,52c-5.3,25.8-10.8,51.7-15.9,77.5c-0.1,0.6-0.2,1.1-0.3,1.7
	c-1.4,7.5-3.3,14-9.4,19.2c-6.8,5.7-16.2,7.1-24.8,7.1c-9.2,0-19.5-2-25.1-10c-3.1-4.4-4.3-10.5-2.9-15.8l7.6-68.4
	c0.6-5.3,0.9-13.8-3.9-17.4c-3.4-2.5-9-2.8-13.1-2.7l-2.3,0.1l-0.2-0.1l-4.5,0.7c-7.3,1.1-14.4,3.2-21.4,5.5l-3.1,1l-7.1-1.7
	c-9.8-2.3-15.9-8.8-18.5-17.5c-1.4-4.7-1.9-10.2-1.4-16.5c0.1-0.6,0.2-2.1,0.1-2.8c-1.3-0.8-5.2-1.7-6.5-2
	c-11-2.6-19.5-5.3-26.5-14.7c-11.9-15.9-7.4-42.9-2.3-61c4.2-14.8,11.8-34.3,21.7-46.2c6.8-8.2,15-15.4,25.1-19.2
	c7.6-2.8,15-3.3,23-2.4C-526.9,9.4-523,10.8-519.6,12.4L-519.6,12.4z M-519.7,18.9l5.6-2.6c4.8-2.2,10.5-2.8,15.7-2.8
	c11.3,0,22.3,10,29.3,18.1l5.3,6.1c22.1,2.9,45.3,11.1,54.4,33.1c5.4,13,4.2,26.4,1.6,39.9c-0.3,1.5-0.5,2.9-0.7,4.4
	c-0.4,2.8-1.1,5.6-1.6,8.4c-1.2,5.9-2.4,11.9-3.6,17.9c-3.5,17.3-7.1,34.6-10.6,51.9c-5.3,25.9-10.8,51.7-16,77.6
	c-0.1,0.6-0.2,1.1-0.3,1.7c-1.1,6-2.5,11.6-7.4,15.7c-5.6,4.7-13.9,5.7-20.9,5.7c-7.1,0-16-1.3-20.4-7.5c-2.2-3.1-3-7.6-1.9-11.3
	l7.7-68.9c0.8-7.7,0.6-17.7-6.2-22.7c-4.6-3.4-11.2-4-16.8-3.8l-1.1,0l-0.5-0.2l-6,0.9c-7.6,1.2-15.1,3.3-22.4,5.7l-1.6,0.5
	l-5.4-1.3c-8.9-2-13.8-7.8-14.9-15.6c-0.8-5.9-1-2.1-0.6-12c0.3-2.6,0.4-5.9-1.7-7.8c-2.1-1.8-6.5-2.7-9.2-3.4
	c-9.4-2.2-17.1-4.3-23.2-12.5c-10.6-14.2-5.9-40-1.4-55.9c3.9-13.7,11.4-32.9,20.6-44c6.1-7.3,13.5-14,22.6-17.4
	c6.7-2.5,13.2-2.8,20.2-2C-528.1,15.2-524.1,16.8-519.7,18.9L-519.7,18.9z"/>
<path class="st1" d="M-498.4,19.4c-6.6,0-10.8,1.1-13.2,2.3c7.3,4.2,14.8,9.2,20.1,13c6.3,0.1,12.3,0.3,18,0.8
	C-479.8,28.3-489.6,19.4-498.4,19.4L-498.4,19.4z"/>
<path class="st1" d="M-542.3,179.7l3.8,0.9c6.5-2.1,14.9-4.7,23.3-5.9c-1.7-1.3-3.4-3-5.1-5.3c-4.5-6.2-9-17.9-5.1-38.5
	c-3.6-1.2-6.3-4.2-8.2-9.1c-0.4-1.1,0.2-2.5,1.4-3.1c1.2-0.6,2.5-0.3,2.9,0.8c1.7,4.5,4.2,7,7.4,7.3c5.2,0.5,10.9-4.6,11-4.7
	c1-0.9,2.5-1,3.2-0.2s0.6,2.3-0.5,3.2c-0.3,0.3-6.3,5.7-12.9,6.1c-2.7,14.8-1.2,26.8,4.5,34.7c3.9,5.5,8.6,7.4,9.6,7.8
	c7.7-0.3,15,0.9,20.5,4.9c7.2,5.3,10.1,14.7,8.6,28l-7.7,69.1c0,0.3-0.1,0.4-0.1,0.7c-0.1,0.1-1,3.5,1.1,6.4c2.3,3.3,7.7,5,15.6,5
	c8,0,13.7-1.4,17.1-4.3c3.6-3.1,4.5-7.7,5.3-12.3c0.1-0.6,0.2-1.2,0.3-1.8c1.7-8.7,30.7-149.9,31.8-155.5c0.1-1.2,0.4-2.7,0.8-4.6
	c3.1-16.5,10.8-57.2-52.8-66.3c-0.1,0-0.2,0-0.3-0.1c-5-0.7-10.5-1.2-16.5-1.5c0.1,0.9-0.2,2-0.9,2.9c-1.3,1.6-3.5,2-4.9,1
	c-1.5-1.1-3.5-2.6-5.8-4.2h-0.1c-1.4,0-2.4-0.8-2.7-2c-11.2-7.8-27.4-18-34.3-18.8c-11-1.3-23.1,0-37.6,17.3
	c-14.4,17.3-32.6,72.2-19,92.6c5.9,7,13.3,8.8,19.9,10.3c8.3,2,16.9,4,15.2,17.5l0.1-0.1C-554.5,171.9-549.5,177.3-542.3,179.7
	L-542.3,179.7z"/>
<path class="st2" d="M-472.1,76.5c0,0-1.8,0.9-2.4-1c-0.7-1.9,2.3-2.2,2.3-2.2s27-8.7,38.1,8.5c1.4,3.2-3.3,5.3-3.3,5.3
	s-2.7,1.7-4.7-1.8C-444.2,81.7-454.8,72-472.1,76.5L-472.1,76.5z"/>
<path class="st0" d="M-484.6,113.1c-1.3,6.4,2.9,11.2,10.3,12.6c7.1,1,15.8-1.3,17.6-10.5c1.9-9.3-5.2-15.8-12.3-15.8
	C-476.1,99.3-484.6,104.5-484.6,113.1L-484.6,113.1z"/>
<path class="st2" d="M-484.6,113.1c-1.3,6.4,3.4,11.6,10.5,11.6s13.5-3.1,14.8-9.6c1.3-6.5-3-13.8-10.1-13.8
	C-476.6,101.4-482.9,104.2-484.6,113.1L-484.6,113.1z"/>
<path class="st0" d="M-484.8,115c0,0,3.3-10.9,11.7-10.9c6.8-0.2,6.5,4.6,6.5,4.6l-6.2,3.3l4.5,3.5c0,0-6.4,9.4-14.7,5.3
	C-485,118.2-484.8,115-484.8,115L-484.8,115z"/>
<path class="st3" d="M-359.1,114.9c3.9,0,7.5-1.6,10.8-4.9c3.3-3.2,5.5-7.5,6.7-12.6c2.9-13.2-0.2-19.8-9.3-19.8
	c-9.3,0-15.3,6.3-18,18.8c-1.2,5.5-0.9,9.9,1,13.3C-366.1,113.1-363.1,114.9-359.1,114.9L-359.1,114.9z M-348.1,126.4l1.5-7.5
	c-5,6-11.4,9.1-19,9.1c-3.9,0-7.3-0.7-10.2-2.2c-2.9-1.5-5.2-3.7-6.9-6.5c-1.7-2.8-2.8-6.3-3.2-10.3c-0.5-4.1-0.1-8.6,1-13.8
	c1-4.6,2.5-8.9,4.4-12.7c2-3.9,4.3-7.2,7.1-10c2.7-2.8,5.9-5,9.3-6.5c3.4-1.5,7.1-2.3,11.1-2.3c7.5,0,12.9,3.2,16.1,9.6l6.5-30.3
	h15.9l-18,83.4H-348.1z M-282.5,96.5c-1,0.8-2.3,1.5-4,2s-4.1,1-7.2,1.6c-4.8,0.9-8.3,2.1-10.3,3.5c-2.1,1.4-3.3,3.4-3.9,6.1
	c-1,4.5,1.1,6.8,6.3,6.8c2.1,0,4.1-0.3,6-1.1c1.9-0.7,3.7-1.7,5.2-2.9c1.5-1.2,2.9-2.6,4-4.2c1.1-1.6,1.9-3.3,2.3-5.1L-282.5,96.5z
	 M-287.9,126.4c-0.2-1.6-0.1-3.4,0.2-5.5c-2.4,2.2-5.3,3.9-8.7,5.2c-3.4,1.3-7.2,1.9-11.4,1.9c-7,0-11.8-1.5-14.4-4.7
	c-2.6-3.1-3.4-7.1-2.3-12.1c1-4.4,2.4-7.9,4.4-10.5c2-2.6,4.3-4.7,7.1-6.1c2.8-1.5,6-2.6,9.6-3.3c3.6-0.7,7.5-1.3,11.7-1.9
	c4.2-0.6,7.1-1.3,8.7-2.3c1.6-0.9,2.7-2.5,3.1-4.7c0.4-2-0.2-3.5-1.8-4.7c-1.6-1.1-4-1.7-7.1-1.7c-3.7,0-6.6,0.8-8.6,2.5
	c-2,1.7-3.5,3.8-4.5,6.6h-15c0.8-3.1,1.9-6.1,3.4-8.7c1.5-2.7,3.5-4.9,6.1-6.8c2.5-1.9,5.6-3.4,9.2-4.4c3.6-1.1,7.9-1.6,12.8-1.6
	c4.8,0,8.8,0.5,11.9,1.6c3.1,1.1,5.5,2.6,7.1,4.7c1.6,2,2.5,4.5,2.8,7.6c0.3,3,0,6.4-0.9,10.2l-8.3,38.6H-287.9z M-266.3,126.4
	l13.2-61h15.2l-1.6,7.3c1.8-2.1,3.5-3.7,5.2-4.8c1.7-1.2,3.4-2.1,5.1-2.7c1.7-0.6,3.3-1,4.9-1.2c1.6-0.2,3.2-0.3,4.9-0.3h2.1
	l-3.6,16.5c-1.4-0.3-2.9-0.4-4.4-0.4c-9.9,0-15.9,4.9-18,14.8l-6.9,31.8H-266.3z M-189.7,126.4l-7.5-27.4l-9.6,8.1l-4.2,19.4h-16.3
	l18-83.4h16.3l-9.8,45.5l25.1-23.2h19.8l-25.4,22.4l11.7,38.6H-189.7z"/>
<path class="st3" d="M-374.9,266.7H-409l-2.6,12.4h-7.2l6.9-33.5h7.2l-2.6,12.5h34.1L-374.9,266.7z M-372.5,226.5
	c0.3-1.5,0.3-3,0.1-4.3c-0.3-1.4-0.9-2.6-1.8-3.6c-0.9-1-2.2-1.8-3.9-2.4c-1.7-0.6-3.7-0.9-6.1-0.9c-4.9,0-8.8,1-11.7,2.9
	c-2.9,1.9-4.8,4.7-5.5,8.3c-0.8,3.7-0.1,6.5,2.1,8.4c2.1,1.9,5.6,2.9,10.5,2.9c4.9,0,8.7-1,11.4-2.9
	C-375,232.9-373.3,230.1-372.5,226.5L-372.5,226.5z M-365.1,226.5c-1.3,6.4-4.2,11.3-8.7,14.7c-4.4,3.4-10.2,5.1-17.2,5.1
	c-3.5,0-6.5-0.4-9.1-1.3c-2.6-0.9-4.7-2.1-6.3-3.9c-1.6-1.7-2.6-3.8-3.1-6.2c-0.5-2.5-0.4-5.3,0.2-8.5c0.7-3.1,1.7-5.9,3.3-8.4
	c1.5-2.5,3.5-4.5,5.7-6.2s4.9-2.9,7.9-3.8c3-0.9,6.2-1.3,9.8-1.3c7.1,0,12.2,1.7,15.1,5.1C-364.6,215.2-363.8,220.1-365.1,226.5
	L-365.1,226.5z M-398.2,180l1.8-8.8h27.6c5,0,8.5,1.5,10.4,4.4s2.4,7.1,1.2,12.6c-1,5-3.1,9-6.1,11.9c-3,2.9-7,4.4-12,4.4h-28.1
	l1.8-8.8h27.3c2.6,0,4.7-0.7,6.5-1.9c1.8-1.3,2.9-3.1,3.4-5.5c1.1-5.5-1-8.3-6.3-8.3H-398.2z M-386.9,160h11l2.2-10.8
	c0.5-2.3,0.3-3.9-0.5-4.9c-0.9-1-2.1-1.5-3.6-1.5c-1.6,0-3,0.5-4.3,1.4c-1.2,0.9-2.1,2.5-2.5,4.7L-386.9,160z M-349.5,144.3h-10.6
	c-2,0-3.5,0.5-4.5,1.4c-1,0.9-1.8,2.6-2.3,5.1l-1.9,9.2h16.2l-1.7,8.4h-41.3l4.3-21c0.4-1.9,1.1-3.6,2-5.2c0.9-1.6,2-2.9,3.3-4
	c1.3-1.1,2.7-2,4.3-2.6c1.6-0.6,3.3-0.9,4.9-0.9c2.3,0,4.1,0.5,5.6,1.6c1.5,1.1,2.4,2.6,2.7,4.6c0.9-1.8,2.1-3.1,3.5-3.9
	c1.3-0.8,3.2-1.1,5.6-1.1h11.7L-349.5,144.3z"/>
<path class="st4" d="M-286.5,186.1l6.9-32.1c0.7-3.2,0.5-5.9-0.6-7.9c-1.1-2-2.9-3-5.4-3c-2.6,0-5,1.1-7.1,3.2
	c-2.1,2.2-3.6,4.9-4.3,8.1l-6.8,31.7h-14l6.9-31.9c0.5-2.2,0.7-3.9,0.7-5.3c0-1.4-0.3-2.5-0.8-3.2c-0.5-0.8-1.3-1.3-2.3-1.7
	c-1-0.3-2.3-0.5-3.8-0.5c-5.7,0-9.3,3.5-10.8,10.3l-6.9,32.2h-14l11.5-53h13.2l-1.7,7.7c2.6-3.5,5.3-5.9,8-7.2
	c2.8-1.3,5.9-1.9,9.5-1.9c1.8,0,3.3,0.2,4.7,0.5s2.5,0.8,3.5,1.4c1,0.7,1.8,1.6,2.6,2.7c0.8,1.1,1.5,2.4,2.2,3.9
	c2.1-2.9,4.4-5.1,7.1-6.4c2.7-1.3,5.7-2,9.1-2c2.7,0,5,0.5,7,1.4c2,0.9,3.7,2.1,4.9,3.8c1.2,1.6,2.1,3.5,2.5,5.7
	c0.4,2.1,0.4,4.4-0.1,6.9l-8,36.7H-286.5z M-266.9,186.1l11.5-53h14l-11.4,53H-266.9z M-254.1,126.8l2.8-13h14l-2.8,13H-254.1z
	 M-247,186.1l11.5-53h13.2l-1.4,6.3c1.5-1.8,3-3.2,4.5-4.2c1.5-1,2.9-1.8,4.4-2.3c1.5-0.5,2.9-0.9,4.3-1c1.4-0.1,2.8-0.2,4.3-0.2
	h1.8l-3.1,14.3c-1.3-0.2-2.5-0.3-3.8-0.3c-8.6,0-13.8,4.3-15.6,12.8l-6,27.6H-247z M-175.1,160.2c-0.9,0.7-2.1,1.3-3.5,1.7
	c-1.5,0.4-3.5,0.9-6.2,1.4c-4.2,0.8-7.2,1.8-9,3c-1.8,1.2-2.9,3-3.4,5.3c-0.9,3.9,1,5.9,5.5,5.9c1.8,0,3.5-0.3,5.2-0.9
	c1.7-0.6,3.2-1.4,4.5-2.5c1.3-1,2.5-2.3,3.5-3.7c1-1.4,1.7-2.9,2-4.5L-175.1,160.2z M-179.8,186.1c-0.1-1.4-0.1-2.9,0.2-4.7
	c-2.1,1.9-4.6,3.3-7.6,4.5c-3,1.1-6.3,1.7-9.8,1.7c-6.1,0-10.3-1.3-12.6-4.1c-2.3-2.7-2.9-6.2-2-10.5c0.8-3.8,2.1-6.9,3.8-9.1
	c1.7-2.3,3.8-4,6.2-5.3c2.4-1.3,5.2-2.2,8.3-2.9c3.1-0.6,6.5-1.1,10.1-1.7c3.6-0.5,6.1-1.2,7.6-2c1.4-0.8,2.3-2.2,2.7-4
	c0.4-1.7-0.1-3.1-1.5-4.1c-1.4-0.9-3.5-1.4-6.2-1.4c-3.2,0-5.7,0.7-7.4,2.1s-3,3.3-3.9,5.7h-13c0.7-2.7,1.6-5.3,3-7.5
	c1.3-2.3,3.1-4.3,5.3-5.9c2.2-1.6,4.9-2.9,8-3.8c3.1-0.9,6.8-1.4,11.1-1.4c4.2,0,7.6,0.5,10.3,1.4c2.7,0.9,4.7,2.3,6.1,4
	c1.4,1.7,2.2,3.9,2.4,6.6c0.2,2.6,0,5.6-0.7,8.9l-7.2,33.5H-179.8z"/>
<path class="st5" d="M-324,207.7c6.7,0,11.2,1.2,13.4,3.7c2.2,2.5,2.8,6.7,1.6,12.7c-1.2,6.3-3.6,10.7-7.1,13.4
	c-3.5,2.7-8.8,4-15.9,4h-10.8l6.6-33.9H-324z M-367.1,275.9h17.7l4.2-21.5h15.2c6.7,0,12.2-0.7,16.5-2.1c4.3-1.4,8.2-3.7,11.8-7.1
	c2.9-2.7,5.3-5.7,7.2-9c1.8-3.3,3.1-6.9,3.9-10.8c1.9-9.6,0.5-17.1-4.2-22.4c-4.7-5.4-12.2-8.1-22.4-8.1h-34L-367.1,275.9z
	 M-277.7,173.3h17.5l-4.2,21.5h15.6c9.8,0,16.6,1.7,20.3,5.1c3.7,3.4,4.8,9,3.3,16.6l-7.3,37.7h-17.8l7-35.8
	c0.8-4.1,0.5-6.9-0.9-8.4s-4.3-2.2-8.8-2.2h-14l-9,46.4h-17.5L-277.7,173.3z M-186.1,207.7c6.7,0,11.2,1.2,13.4,3.7
	c2.2,2.5,2.8,6.7,1.6,12.7c-1.2,6.3-3.6,10.7-7.1,13.4c-3.5,2.7-8.8,4-15.9,4h-10.8l6.6-33.9H-186.1z M-229.1,275.9h17.7l4.2-21.5
	h15.2c6.7,0,12.2-0.7,16.5-2.1s8.2-3.7,11.8-7.1c2.9-2.7,5.3-5.7,7.2-9c1.8-3.3,3.1-6.9,3.9-10.8c1.9-9.6,0.5-17.1-4.2-22.4
	c-4.7-5.4-12.2-8.1-22.4-8.1h-34L-229.1,275.9z"/>
<g>
	<path class="st3" d="M-308.1,295h-24.3l12.7-15.1c0.5-0.6,1-1.2,1.5-1.9c0.5-0.6,1-1.3,1.4-2c0.4-0.7,0.8-1.4,1-2
		c0.3-0.7,0.4-1.3,0.4-2c0-1.4-0.4-2.6-1.4-3.4c-0.9-0.9-2.1-1.3-3.4-1.3c-1.5,0-2.9,0.4-4.1,1.2c-1.2,0.8-2.3,1.8-3.1,3l-4.5-4.4
		c1.5-1.8,3.1-3.3,5-4.3c1.8-1,4.1-1.5,6.9-1.5c1.4,0,2.8,0.2,4.2,0.6c1.3,0.4,2.5,1.1,3.6,1.9c1,0.8,1.9,1.9,2.5,3.2
		c0.6,1.3,1,2.7,1,4.4c0,1.1-0.2,2.1-0.5,3.1c-0.3,1-0.7,1.9-1.2,2.9c-0.5,0.9-1.1,1.8-1.8,2.7c-0.7,0.9-1.4,1.8-2.1,2.7l-4.7,5.9
		h11.1V295z M-280.6,278.6c0,2-0.3,4-0.9,5.9c-0.6,2-1.5,3.7-2.7,5.3c-1.2,1.6-2.7,2.8-4.4,3.8c-1.7,1-3.7,1.4-5.8,1.4
		s-4.1-0.5-5.8-1.4c-1.7-1-3.2-2.2-4.3-3.8c-1.2-1.6-2.1-3.3-2.8-5.3c-0.6-2-1-4-1-5.9c0-2.1,0.3-4.1,0.9-6.2c0.6-2,1.5-3.9,2.6-5.5
		c1.1-1.6,2.6-3,4.3-4c1.7-1,3.7-1.5,6-1.5c2.3,0,4.3,0.5,6,1.5c1.7,1,3.2,2.4,4.3,4c1.2,1.7,2,3.5,2.7,5.6
		C-280.9,274.5-280.6,276.5-280.6,278.6L-280.6,278.6z M-287.1,278.8c0-1.1-0.1-2.4-0.4-3.7c-0.2-1.3-0.6-2.6-1.2-3.8
		c-0.6-1.2-1.3-2.1-2.2-2.9s-2.1-1.2-3.5-1.2c-1.3,0-2.5,0.4-3.4,1.2c-0.9,0.8-1.7,1.8-2.3,2.9c-0.6,1.2-1,2.5-1.3,3.8
		c-0.2,1.4-0.4,2.6-0.4,3.7c0,1.1,0.1,2.3,0.4,3.6c0.3,1.3,0.7,2.4,1.3,3.5c0.6,1.1,1.3,2,2.2,2.7c0.9,0.7,2,1,3.3,1
		c1.3,0,2.4-0.4,3.3-1c0.9-0.7,1.7-1.6,2.2-2.7c0.6-1.1,1-2.2,1.3-3.5C-287.3,281.1-287.1,279.9-287.1,278.8L-287.1,278.8z
		 M-268.9,295.1h-6.4v-25.9l-5.4,2.1v-5.4l11.8-4.4V295.1z"/>
	<text transform="matrix(0.8786 0 0 1 -267.9901 294.6035)" class="st7 st8">9</text>
</g>
<path class="st2" d="M94.9,27.6l3.1-1.4c5.6-2.6,12.1-3.4,18.2-3.4c13.3,0,25.5,10.6,33.6,20.1l3.9,4.4
	c23.5,3.4,47.2,12.9,56.8,36.3c5.8,14.1,4.7,28.4,2,43.2c-0.3,1.4-0.5,2.8-0.7,4.2c-0.5,2.9-1.1,5.7-1.7,8.6
	c-1.2,6-2.4,11.9-3.6,17.9c-3.5,17.3-7.1,34.6-10.6,52c-5.3,25.8-10.8,51.7-15.9,77.5c-0.1,0.6-0.2,1.1-0.3,1.7
	c-1.4,7.5-3.3,14-9.4,19.2c-6.8,5.7-16.2,7.1-24.8,7.1c-9.2,0-19.5-2-25.1-10c-3.1-4.4-4.3-10.5-2.9-15.8l7.6-68.4
	c0.6-5.3,0.9-13.8-3.9-17.4c-3.4-2.5-9-2.8-13.1-2.7l-2.3,0.1l-0.2-0.1l-4.5,0.7c-7.3,1.1-14.4,3.2-21.4,5.5l-3.1,1l-7.1-1.7
	c-9.8-2.3-15.9-8.8-18.5-17.5c-1.4-4.7-1.9-10.2-1.4-16.5c0.1-0.6,0.2-2.1,0.1-2.8c-1.3-0.8-5.2-1.7-6.5-2
	c-11-2.6-19.5-5.3-26.5-14.7c-11.9-15.9-7.4-42.9-2.3-61C18.3,77,26,57.5,35.9,45.6c6.8-8.2,15-15.4,25.1-19.2
	c7.6-2.8,15-3.3,23-2.4C87.6,24.5,91.4,26,94.9,27.6L94.9,27.6z M94.8,34.1l5.6-2.6c4.8-2.2,10.5-2.8,15.7-2.8
	c11.3,0,22.3,10,29.3,18.1l5.3,6.1c22.1,2.9,45.3,11.1,54.4,33.1c5.4,13,4.2,26.4,1.6,39.9c-0.3,1.5-0.5,2.9-0.7,4.4
	c-0.4,2.8-1.1,5.6-1.6,8.4c-1.2,5.9-2.4,11.9-3.6,17.9c-3.5,17.3-7.1,34.6-10.6,51.9c-5.3,25.9-10.8,51.7-16,77.6
	c-0.1,0.6-0.2,1.1-0.3,1.7c-1.1,6-2.5,11.6-7.4,15.7c-5.6,4.7-13.9,5.7-20.9,5.7c-7.1,0-16-1.3-20.4-7.5c-2.2-3.1-3-7.6-1.9-11.3
	l7.7-68.9c0.8-7.7,0.6-17.7-6.2-22.7c-4.6-3.4-11.2-4-16.8-3.8l-1.1,0l-0.5-0.2l-6,0.9c-7.6,1.2-15.1,3.3-22.4,5.7l-1.6,0.5
	l-5.4-1.3c-8.9-2-13.8-7.8-14.9-15.6c-0.8-5.9-1-2.1-0.6-12c0.3-2.6,0.4-5.9-1.7-7.8s-6.5-2.7-9.2-3.4c-9.4-2.2-17.1-4.3-23.2-12.5
	c-10.6-14.2-5.9-40-1.4-55.9c3.9-13.7,11.4-32.9,20.6-44c6.1-7.3,13.5-14,22.6-17.4c6.7-2.5,13.2-2.8,20.2-2
	C86.3,30.3,90.4,31.9,94.8,34.1L94.8,34.1z"/>
<path class="st1" d="M116,34.5c-6.6,0-10.8,1.1-13.2,2.3c7.3,4.2,14.8,9.2,20.1,13c6.3,0.1,12.3,0.3,18,0.8
	C134.6,43.4,124.8,34.5,116,34.5L116,34.5z"/>
<path class="st1" d="M72.1,194.8l3.8,0.9c6.5-2.1,14.9-4.7,23.3-5.9c-1.7-1.3-3.4-3-5.1-5.3c-4.5-6.2-9-17.9-5.1-38.5
	c-3.6-1.2-6.3-4.2-8.2-9.1c-0.4-1.1,0.2-2.5,1.4-3.1c1.2-0.6,2.5-0.3,2.9,0.8c1.7,4.5,4.2,7,7.4,7.3c5.2,0.5,10.9-4.6,11-4.7
	c1-0.9,2.5-1,3.2-0.2c0.8,0.8,0.6,2.3-0.5,3.2c-0.3,0.3-6.3,5.7-12.9,6.1c-2.7,14.8-1.2,26.8,4.5,34.7c3.9,5.5,8.6,7.4,9.6,7.8
	c7.7-0.3,15,0.9,20.5,4.9c7.2,5.3,10.1,14.7,8.6,28L129,291c0,0.3-0.1,0.4-0.1,0.7c-0.1,0.1-1,3.5,1.1,6.4c2.3,3.3,7.7,5,15.6,5
	c8,0,13.7-1.4,17.1-4.3c3.6-3.1,4.5-7.7,5.3-12.3c0.1-0.6,0.2-1.2,0.3-1.8c1.7-8.7,30.7-149.9,31.8-155.5c0.1-1.2,0.4-2.7,0.8-4.6
	c3.1-16.5,10.8-57.2-52.8-66.3c-0.1,0-0.2,0-0.3-0.1c-5-0.7-10.5-1.2-16.5-1.5c0.1,0.9-0.2,2-0.9,2.9c-1.3,1.6-3.5,2-4.9,1
	c-1.5-1.1-3.5-2.6-5.8-4.2h-0.1c-1.4,0-2.4-0.8-2.7-2c-11.2-7.8-27.4-18-34.3-18.8c-11-1.3-23.1,0-37.6,17.3
	c-14.4,17.3-32.6,72.2-19,92.6c5.9,7,13.3,8.8,19.9,10.3c8.3,2,16.9,4,15.2,17.5l0.1-0.1C59.9,187.1,64.9,192.4,72.1,194.8
	L72.1,194.8z"/>
<path class="st2" d="M142.3,91.6c0,0-1.8,0.9-2.4-1c-0.7-1.9,2.3-2.2,2.3-2.2s27-8.7,38.1,8.5c1.4,3.2-3.3,5.3-3.3,5.3
	s-2.7,1.7-4.7-1.8C170.2,96.9,159.6,87.1,142.3,91.6L142.3,91.6z"/>
<path class="st0" d="M129.8,128.2c-1.3,6.4,2.9,11.2,10.3,12.6c7.1,1,15.8-1.3,17.6-10.5c1.9-9.3-5.2-15.8-12.3-15.8
	C138.3,114.4,129.8,119.7,129.8,128.2L129.8,128.2z"/>
<path class="st2" d="M129.8,128.2c-1.3,6.4,3.4,11.6,10.5,11.6s13.5-3.1,14.8-9.6c1.3-6.5-3-13.8-10.1-13.8
	C137.9,116.5,131.6,119.4,129.8,128.2L129.8,128.2z"/>
<path class="st0" d="M129.6,130.1c0,0,3.3-10.9,11.7-10.9c6.8-0.2,6.5,4.6,6.5,4.6l-6.2,3.3l4.5,3.5c0,0-6.4,9.4-14.7,5.3
	C129.4,133.3,129.6,130.1,129.6,130.1L129.6,130.1z"/>
<path class="st6" d="M255.4,130c3.9,0,7.5-1.6,10.8-4.9c3.3-3.2,5.5-7.5,6.7-12.6c2.9-13.2-0.2-19.8-9.3-19.8
	c-9.3,0-15.3,6.3-18,18.8c-1.2,5.5-0.9,9.9,1,13.3C248.4,128.3,251.3,130,255.4,130L255.4,130z M266.3,141.5l1.5-7.5
	c-5,6-11.4,9.1-19,9.1c-3.9,0-7.3-0.7-10.2-2.2c-2.9-1.5-5.2-3.7-6.9-6.5c-1.7-2.8-2.8-6.3-3.2-10.3c-0.5-4.1-0.1-8.6,1-13.8
	c1-4.6,2.5-8.9,4.4-12.7c2-3.9,4.3-7.2,7.1-10c2.7-2.8,5.9-5,9.3-6.5c3.4-1.5,7.1-2.3,11.1-2.3c7.5,0,12.9,3.2,16.1,9.6l6.5-30.3
	h15.9l-18,83.4H266.3z M331.9,111.6c-1,0.8-2.3,1.5-4,2s-4.1,1-7.2,1.6c-4.8,0.9-8.3,2.1-10.3,3.5c-2.1,1.4-3.3,3.4-3.9,6.1
	c-1,4.5,1.1,6.8,6.3,6.8c2.1,0,4.1-0.3,6-1.1c1.9-0.7,3.7-1.7,5.2-2.9c1.5-1.2,2.9-2.6,4-4.2c1.1-1.6,1.9-3.3,2.3-5.1L331.9,111.6z
	 M326.6,141.5c-0.2-1.6-0.1-3.4,0.2-5.5c-2.4,2.2-5.3,3.9-8.7,5.2c-3.4,1.3-7.2,1.9-11.4,1.9c-7,0-11.8-1.5-14.4-4.7
	c-2.6-3.1-3.4-7.1-2.3-12.1c1-4.4,2.4-7.9,4.4-10.5c2-2.6,4.3-4.7,7.1-6.1c2.8-1.5,6-2.6,9.6-3.3c3.6-0.7,7.5-1.3,11.7-1.9
	c4.2-0.6,7.1-1.3,8.7-2.3c1.6-0.9,2.7-2.5,3.1-4.7c0.4-2-0.2-3.5-1.8-4.7c-1.6-1.1-4-1.7-7.1-1.7c-3.7,0-6.6,0.8-8.6,2.5
	c-2,1.7-3.5,3.8-4.5,6.6h-15c0.8-3.1,1.9-6.1,3.4-8.7c1.5-2.7,3.5-4.9,6.1-6.8c2.5-1.9,5.6-3.4,9.2-4.4c3.6-1.1,7.9-1.6,12.8-1.6
	c4.8,0,8.8,0.5,11.9,1.6c3.1,1.1,5.5,2.6,7.1,4.7c1.6,2,2.5,4.5,2.8,7.6c0.3,3,0,6.4-0.9,10.2l-8.3,38.6H326.6z M348.1,141.5
	l13.2-61h15.2l-1.6,7.3c1.8-2.1,3.5-3.7,5.2-4.8c1.7-1.2,3.4-2.1,5.1-2.7c1.7-0.6,3.3-1,4.9-1.2c1.6-0.2,3.2-0.3,4.9-0.3h2.1
	l-3.6,16.5c-1.4-0.3-2.9-0.4-4.4-0.4c-9.9,0-15.9,4.9-18,14.8l-6.9,31.8H348.1z M424.8,141.5l-7.5-27.4l-9.6,8.1l-4.2,19.4h-16.3
	l18-83.4h16.3l-9.8,45.5l25.1-23.2h19.8l-25.4,22.4l11.7,38.6H424.8z"/>
<path class="st6" d="M239.6,281.9h-34.1l-2.6,12.4h-7.2l6.9-33.5h7.2l-2.6,12.5h34.1L239.6,281.9z M241.9,241.6
	c0.3-1.5,0.3-3,0.1-4.3c-0.3-1.4-0.9-2.6-1.8-3.6c-0.9-1-2.2-1.8-3.9-2.4c-1.7-0.6-3.7-0.9-6.1-0.9c-4.9,0-8.8,1-11.7,2.9
	c-2.9,1.9-4.8,4.7-5.5,8.3c-0.8,3.7-0.1,6.5,2.1,8.4c2.1,1.9,5.6,2.9,10.5,2.9c4.9,0,8.7-1,11.4-2.9
	C239.5,248,241.2,245.2,241.9,241.6L241.9,241.6z M249.3,241.6c-1.3,6.4-4.2,11.3-8.7,14.7c-4.4,3.4-10.2,5.1-17.2,5.1
	c-3.5,0-6.5-0.4-9.1-1.3c-2.6-0.9-4.7-2.1-6.3-3.9c-1.6-1.7-2.6-3.8-3.1-6.2c-0.5-2.5-0.4-5.3,0.2-8.5c0.7-3.1,1.7-5.9,3.3-8.4
	c1.5-2.5,3.5-4.5,5.7-6.2s4.9-2.9,7.9-3.8c3-0.9,6.2-1.3,9.8-1.3c7.1,0,12.2,1.7,15.1,5.1C249.9,230.4,250.7,235.2,249.3,241.6
	L249.3,241.6z M216.2,195.2l1.8-8.8h27.6c5,0,8.5,1.5,10.4,4.4c1.9,2.9,2.4,7.1,1.2,12.6c-1,5-3.1,9-6.1,11.9c-3,2.9-7,4.4-12,4.4
	h-28.1l1.8-8.8h27.3c2.6,0,4.7-0.7,6.5-1.9c1.8-1.3,2.9-3.1,3.4-5.5c1.1-5.5-1-8.3-6.3-8.3H216.2z M227.5,175.1h11l2.2-10.8
	c0.5-2.3,0.3-3.9-0.5-4.9c-0.9-1-2.1-1.5-3.6-1.5c-1.6,0-3,0.5-4.3,1.4c-1.2,0.9-2.1,2.5-2.5,4.7L227.5,175.1z M264.9,159.4h-10.6
	c-2,0-3.5,0.5-4.5,1.4c-1,0.9-1.8,2.6-2.3,5.1l-1.9,9.2h16.2l-1.7,8.4h-41.3l4.3-21c0.4-1.9,1.1-3.6,2-5.2c0.9-1.6,2-2.9,3.3-4
	c1.3-1.1,2.7-2,4.3-2.6c1.6-0.6,3.3-0.9,4.9-0.9c2.3,0,4.1,0.5,5.6,1.6c1.5,1.1,2.4,2.6,2.7,4.6c0.9-1.8,2.1-3.1,3.5-3.9
	c1.3-0.8,3.2-1.1,5.6-1.1h11.7L264.9,159.4z"/>
<path class="st4" d="M327.9,201.3l6.9-32.1c0.7-3.2,0.5-5.9-0.6-7.9c-1.1-2-2.9-3-5.4-3c-2.6,0-5,1.1-7.1,3.2
	c-2.1,2.2-3.6,4.9-4.3,8.1l-6.8,31.7h-14l6.9-31.9c0.5-2.2,0.7-3.9,0.7-5.3c0-1.4-0.3-2.5-0.8-3.2c-0.5-0.8-1.3-1.3-2.3-1.7
	c-1-0.3-2.3-0.5-3.8-0.5c-5.7,0-9.3,3.5-10.8,10.3l-6.9,32.2h-14l11.5-53h13.2l-1.7,7.7c2.6-3.5,5.3-5.9,8-7.2
	c2.8-1.3,5.9-1.9,9.5-1.9c1.8,0,3.3,0.2,4.7,0.5s2.5,0.8,3.5,1.4c1,0.7,1.8,1.6,2.6,2.7c0.8,1.1,1.5,2.4,2.2,3.9
	c2.1-2.9,4.4-5.1,7.1-6.4c2.7-1.3,5.7-2,9.1-2c2.7,0,5,0.5,7,1.4c2,0.9,3.7,2.1,4.9,3.8c1.2,1.6,2.1,3.5,2.5,5.7
	c0.4,2.1,0.4,4.4-0.1,6.9l-8,36.7H327.9z M347.5,201.3l11.5-53h14l-11.4,53H347.5z M360.4,141.9l2.8-13h14l-2.8,13H360.4z
	 M367.5,201.3l11.5-53h13.2l-1.4,6.3c1.5-1.8,3-3.2,4.5-4.2c1.5-1,2.9-1.8,4.4-2.3c1.5-0.5,2.9-0.9,4.3-1c1.4-0.1,2.8-0.2,4.3-0.2
	h1.8l-3.1,14.3c-1.3-0.2-2.5-0.3-3.8-0.3c-8.6,0-13.8,4.3-15.6,12.8l-6,27.6H367.5z M439.3,175.3c-0.9,0.7-2.1,1.3-3.5,1.7
	c-1.5,0.4-3.5,0.9-6.2,1.4c-4.2,0.8-7.2,1.8-9,3c-1.8,1.2-2.9,3-3.4,5.3c-0.9,3.9,1,5.9,5.5,5.9c1.8,0,3.5-0.3,5.2-0.9
	c1.7-0.6,3.2-1.4,4.5-2.5c1.3-1,2.5-2.3,3.5-3.7c1-1.4,1.7-2.9,2-4.5L439.3,175.3z M434.7,201.3c-0.1-1.4-0.1-2.9,0.2-4.7
	c-2.1,1.9-4.6,3.3-7.6,4.5c-3,1.1-6.3,1.7-9.8,1.7c-6.1,0-10.3-1.3-12.6-4.1c-2.3-2.7-2.9-6.2-2-10.5c0.8-3.8,2.1-6.9,3.8-9.1
	c1.7-2.3,3.8-4,6.2-5.3c2.4-1.3,5.2-2.2,8.3-2.9c3.1-0.6,6.5-1.1,10.1-1.7c3.6-0.5,6.1-1.2,7.6-2c1.4-0.8,2.3-2.2,2.7-4
	c0.4-1.7-0.1-3.1-1.5-4.1c-1.4-0.9-3.5-1.4-6.2-1.4c-3.2,0-5.7,0.7-7.4,2.1s-3,3.3-3.9,5.7h-13c0.7-2.7,1.6-5.3,3-7.5
	c1.3-2.3,3.1-4.3,5.3-5.9c2.2-1.6,4.9-2.9,8-3.8c3.1-0.9,6.8-1.4,11.1-1.4c4.2,0,7.6,0.5,10.3,1.4c2.7,0.9,4.7,2.3,6.1,4
	c1.4,1.7,2.2,3.9,2.4,6.6c0.2,2.6,0,5.6-0.7,8.9l-7.2,33.5H434.7z"/>
<path class="st5" d="M290.4,222.8c6.7,0,11.2,1.2,13.4,3.7c2.2,2.5,2.8,6.7,1.6,12.7c-1.2,6.3-3.6,10.7-7.1,13.4
	c-3.5,2.7-8.8,4-15.9,4h-10.8l6.6-33.9H290.4z M247.4,291H265l4.2-21.5h15.2c6.7,0,12.2-0.7,16.5-2.1c4.3-1.4,8.2-3.7,11.8-7.1
	c2.9-2.7,5.3-5.7,7.2-9c1.8-3.3,3.1-6.9,3.9-10.8c1.9-9.6,0.5-17.1-4.2-22.4c-4.7-5.4-12.2-8.1-22.4-8.1h-34L247.4,291z
	 M336.7,188.5h17.5L350,210h15.6c9.8,0,16.6,1.7,20.3,5.1c3.7,3.4,4.8,9,3.3,16.6l-7.3,37.7h-17.8l7-35.8c0.8-4.1,0.5-6.9-0.9-8.4
	s-4.3-2.2-8.8-2.2h-14l-9,46.4h-17.5L336.7,188.5z M428.4,222.8c6.7,0,11.2,1.2,13.4,3.7c2.2,2.5,2.8,6.7,1.6,12.7
	c-1.2,6.3-3.6,10.7-7.1,13.4c-3.5,2.7-8.8,4-15.9,4h-10.8l6.6-33.9H428.4z M385.3,291H403l4.2-21.5h15.2c6.7,0,12.2-0.7,16.5-2.1
	s8.2-3.7,11.8-7.1c2.9-2.7,5.3-5.7,7.2-9c1.8-3.3,3.1-6.9,3.9-10.8c1.9-9.6,0.5-17.1-4.2-22.4c-4.7-5.4-12.2-8.1-22.4-8.1h-34
	L385.3,291z"/>
<g>
	<path class="st6" d="M308.2,310.4h-24.3l12.7-15.1c0.5-0.6,1-1.2,1.5-1.9c0.5-0.6,1-1.3,1.4-2c0.4-0.7,0.8-1.4,1-2
		c0.3-0.7,0.4-1.3,0.4-2c0-1.4-0.4-2.6-1.4-3.4c-0.9-0.9-2.1-1.3-3.4-1.3c-1.5,0-2.9,0.4-4.1,1.2c-1.2,0.8-2.3,1.8-3.1,3l-4.5-4.4
		c1.5-1.8,3.1-3.3,5-4.3c1.8-1,4.1-1.5,6.9-1.5c1.4,0,2.8,0.2,4.2,0.6c1.3,0.4,2.5,1.1,3.6,1.9c1,0.8,1.9,1.9,2.5,3.2
		c0.6,1.3,1,2.7,1,4.4c0,1.1-0.2,2.1-0.5,3.1c-0.3,1-0.7,1.9-1.2,2.9c-0.5,0.9-1.1,1.8-1.8,2.7c-0.7,0.9-1.4,1.8-2.1,2.7l-4.7,5.9
		h11.1V310.4z M335.8,293.9c0,2-0.3,4-0.9,5.9c-0.6,2-1.5,3.7-2.7,5.3c-1.2,1.6-2.7,2.8-4.4,3.8c-1.7,1-3.7,1.4-5.8,1.4
		s-4.1-0.5-5.8-1.4c-1.7-1-3.2-2.2-4.3-3.8c-1.2-1.6-2.1-3.3-2.8-5.3c-0.6-2-1-4-1-5.9c0-2.1,0.3-4.1,0.9-6.2c0.6-2,1.5-3.9,2.6-5.5
		c1.1-1.6,2.6-3,4.3-4c1.7-1,3.7-1.5,6-1.5c2.3,0,4.3,0.5,6,1.5c1.7,1,3.2,2.4,4.3,4c1.2,1.7,2,3.5,2.7,5.6
		C335.5,289.8,335.8,291.8,335.8,293.9L335.8,293.9z M329.2,294.1c0-1.1-0.1-2.4-0.4-3.7c-0.2-1.3-0.6-2.6-1.2-3.8
		c-0.6-1.2-1.3-2.1-2.2-2.9s-2.1-1.2-3.5-1.2c-1.3,0-2.5,0.4-3.4,1.2c-0.9,0.8-1.7,1.8-2.3,2.9c-0.6,1.2-1,2.5-1.3,3.8
		c-0.2,1.4-0.4,2.6-0.4,3.7c0,1.1,0.1,2.3,0.4,3.6c0.3,1.3,0.7,2.4,1.3,3.5c0.6,1.1,1.3,2,2.2,2.7c0.9,0.7,2,1,3.3,1
		c1.3,0,2.4-0.4,3.3-1c0.9-0.7,1.7-1.6,2.2-2.7c0.6-1.1,1-2.2,1.3-3.5C329.1,296.5,329.2,295.3,329.2,294.1L329.2,294.1z
		 M347.5,310.4h-6.4v-25.9l-5.4,2.1v-5.4l11.8-4.4V310.4z"/>
	<text transform="matrix(0.8786 0 0 1 348.3606 309.9212)" class="st6 st7 st8">9</text>
</g>
</svg>
